# xmcd
# Track frame offsets:
# 150
# 27906
# 43998
# 57782
# 75662
# 90014
# 110850
# 125569
# 141901
# 158144
# 174232
# 190456
# 202388
# 220376
# 234222
# 249026
# 263945
# 279288
# 291631
# 302946
#
# Disc length: 4283 seconds
# Revision: 0
# Processed by: cddbd v1.5.2PL0 Copyright (c) Steve Scherf et al.
# Submitted via: VisiTrax 2.11.2.271 - For more info visit www.synapsa.com
#
DISCID=2910b914
DTITLE=Don Kelley Band - Best of Don Kelley Bang
DYEAR=2010
DGENRE=Country
TTITLE0=Ghost Riders
TTITLE1=Big River
TTITLE2=I Can Help
TTITLE3=Keep Your Hands To Yourself
TTITLE4=I Hung It Up
TTITLE5=Lonesome , Ornery and Mean
TTITLE6=Hello Josephine
TTITLE7=Workin' Man Blues
TTITLE8=Walkin' The Dog
TTITLE9=You Win Again
TTITLE10=Honey Hush
TTITLE11=Head Over Heels
TTITLE12=Start It Up
TTITLE13=Way To Survive
TTITLE14=Rolly Polly
TTITLE15=TN Stud
TTITLE16=That's Alright Mama
TTITLE17=Hey Baby
TTITLE18=Truck Drivin' Man
TTITLE19=Faded Blue Jeans
EXTD=
EXTT0=
EXTT1=
EXTT2=
EXTT3=
EXTT4=
EXTT5=
EXTT6=
EXTT7=
EXTT8=
EXTT9=
EXTT10=
EXTT11=
EXTT12=
EXTT13=
EXTT14=
EXTT15=
EXTT16=
EXTT17=
EXTT18=
EXTT19=
PLAYORDER=
